<?xml version="1.0" encoding="utf-8"?>
<!-- Generator: Adobe Illustrator 26.1.0, SVG Export Plug-In . SVG Version: 6.00 Build 0)  -->
<svg version="1.1" id="Calque_1" xmlns="http://www.w3.org/2000/svg" xmlns:xlink="http://www.w3.org/1999/xlink" x="0px" y="0px"
	 viewBox="0 0 512 512" style="enable-background:new 0 0 512 512;" xml:space="preserve">
<style type="text/css">
	.st0{fill:#253237;}
	.st1{fill:#a4becc;}
	.st2{fill:#5c6b73;}
	.st3{fill:#9d373e;}
	.st4{fill:#BDDBE4;}
	.st5{fill:#DAF2F7;}
</style>
<g>
	<g>
		<path class="st0" d="M485.67,47.43c0.01,63.63,0,127.25,0,190.88c0,1.58-0.09,3.19-0.15,4.77c-7.88,0-15.76,0-23.65,0.01
			c-69.74,0.03-139.48,0.05-209.22,0.09c-2.86,0.01-5.73,0.02-8.59,0.03c-0.04-0.05-0.09-0.09-0.13-0.14
			c0.03-80.53,0.06-161.06,0.09-241.59c5.88,0.1,17.53,0.23,32.18-0.07c30.21-0.62,114.67,0,163.51,0
			c19.92,0,35.71,10.77,42.44,27.33c0.01,0.07,0.04,0.15,0.08,0.21c1.75,4.71,2.66,9.29,3.16,13.16
			C485.57,43.85,485.67,45.62,485.67,47.43z"/>
		<path class="st1" d="M485.75,275.39c0.01,55.03,0.01,110.04,0,165.05c-0.01,24.59-19.9,44.49-44.47,44.49
			c-64.13,0.01-128.25,0-192.38,0c-1.34,0-2.68-0.07-4.03-0.12c-0.28-0.01-0.56-0.03-0.84-0.04h-0.09
			c0.01-78.05,0.01-156.1,0.03-234.13c0-2.49,0.05-4.97,0.07-7.46h8.65c68.2-0.03,136.38-0.05,204.57-0.08
			c9.45,0,18.89-0.01,28.34-0.03v0.09c0.01,2.66,0.03,5.33,0.04,7.99C485.68,259.24,485.73,267.32,485.75,275.39z"/>
		<path class="st2" d="M244.03,1.49c-0.01,78.05-0.01,156.1-0.03,234.13c0,2.49-0.05,4.97-0.07,7.46
			c-71.08,0.03-142.15,0.05-213.22,0.08c-9.45,0-18.89,0.01-28.34,0.03c-0.05-10.78-0.15-21.55-0.16-32.31
			c-0.01-55.03-0.01-110.04,0-165.05C2.23,21.23,22.11,1.33,46.69,1.33c64.13-0.01,128.25,0,192.38,0
			C240.72,1.33,242.38,1.44,244.03,1.49z"/>
		<path class="st0" d="M244.07,243.21c-0.01,80.53-0.03,161.07-0.04,241.6c-10.77,0.05-21.53,0.16-32.3,0.16
			c-54.67,0.01-109.35,0.01-164.02,0c-13.14-0.01-24.63-4.99-32.77-13.27C4.62,461.21,2.92,447.21,2.21,439.51
			c-2.76-30.05-3.19-101.77,0.16-196.33c80.52-0.04,161.04-0.07,241.56-0.11L244.07,243.21z"/>
	</g>
	<path class="st3" d="M511.66,366.95c-5.87,87.32-87.11,153.38-173.16,142.79c-77.31-9.52-138.53-78.45-135.23-159.48
		c3.31-81.39,70.46-144.65,147.22-147.95C439.21,198.49,517.79,275.76,511.66,366.95z"/>
	<g>
		<g>
			<path class="st4" d="M357.16,341.67c-11.09,0-22.18,0.04-33.27-0.01c-9.54-0.05-16.28-6.38-16.2-15.07
				c0.08-8.48,6.76-14.73,16-14.76c22.51-0.06,45.02-0.06,67.53,0c9.25,0.02,15.9,6.3,15.96,14.81c0.06,8.52-6.59,14.94-15.75,15.01
				C380,341.74,368.58,341.67,357.16,341.67z"/>
			<path class="st4" d="M357.46,401.39c-11.09,0-22.18,0.03-33.27-0.01c-9.67-0.04-16.4-6.1-16.5-14.77
				c-0.1-8.85,6.73-15.06,16.69-15.07c22.01-0.03,44.02-0.03,66.04,0c10,0.01,16.82,6.16,16.76,15.01
				c-0.06,8.85-6.85,14.81-16.94,14.84C379.31,401.4,368.39,401.39,357.46,401.39z"/>
		</g>
		<path class="st4" d="M364.92,107.35c11.1,0,22.21-0.06,33.31,0.02c9.75,0.07,16.37,6.17,16.36,14.89
			c-0.01,8.51-6.4,14.82-15.9,14.9c-22.54,0.19-45.08,0.19-67.62,0c-9.48-0.08-15.87-6.44-15.86-14.94
			c0.01-8.72,6.63-14.79,16.4-14.85C342.71,107.3,353.81,107.35,364.92,107.35z"/>
		<path class="st5" d="M102.58,364.14c-5.14-4.94-9.77-9.2-14.17-13.68c-6.47-6.61-6.7-15.79-0.74-21.77
			c5.95-5.98,15.14-5.74,21.79,0.6c2.28,2.17,4.48,4.42,6.68,6.67c2.19,2.25,4.34,4.54,7.24,7.57c4.59-4.89,8.75-9.56,13.16-13.97
			c6.57-6.56,15.71-6.93,21.77-1.12c6.2,5.95,6.03,15.39-0.61,22.14c-4.39,4.46-9.06,8.66-14.06,13.42
			c5.14,4.94,9.78,9.18,14.17,13.68c6.45,6.6,6.67,15.8,0.73,21.79c-5.92,5.96-15.22,5.77-21.77-0.64
			c-4.49-4.4-8.76-9.02-13.84-14.28c-4.68,4.98-8.83,9.66-13.27,14.06c-6.75,6.69-16.13,6.9-22.12,0.73
			c-5.87-6.05-5.54-15.15,0.99-21.77C92.94,373.1,97.59,368.89,102.58,364.14z"/>
		<path class="st5" d="M123.1,171.93c-7.29,0-13.45-5.16-14.58-12.43c-0.38-2.44-0.2-4.96-0.38-7.44
			c-0.35-4.74,2.05-10.75-1.09-13.87c-2.93-2.91-8.85-0.63-13.45-0.92c-1.49-0.09-2.99,0.02-4.48-0.06
			c-9.45-0.47-15.81-6.62-15.7-15.15c0.11-8.56,6.61-14.55,16.06-14.7c4.97-0.08,9.95-0.12,14.92,0c2.77,0.07,3.85-0.99,3.78-3.77
			c-0.13-5.14-0.14-10.29,0.02-15.42c0.28-9.16,6.3-15.48,14.67-15.61c8.57-0.14,14.84,6.26,15.14,15.64
			c0.16,5.14,0.15,10.28,0.02,15.42c-0.07,2.81,1.06,3.81,3.8,3.75c5.14-0.12,10.28-0.12,15.42,0.01
			c9.08,0.22,15.44,6.31,15.54,14.71c0.09,8.2-5.91,14.47-14.73,15.03c-4.79,0.31-9.63,0.38-14.42,0.06
			c-4.25-0.28-6.01,0.89-5.68,5.45c0.37,5.11,0.29,10.29-0.1,15.41C137.25,166.22,130.96,171.93,123.1,171.93z"/>
	</g>
</g>
<path class="st3" d="M-212.22-36.13"/>
</svg>
