<?xml version="1.0" encoding="utf-8"?>
<!-- Generator: Adobe Illustrator 26.2.1, SVG Export Plug-In . SVG Version: 6.00 Build 0)  -->
<svg version="1.1" id="Calque_1" xmlns="http://www.w3.org/2000/svg" xmlns:xlink="http://www.w3.org/1999/xlink" x="0px" y="0px"
	 viewBox="0 0 512 512" style="enable-background:new 0 0 512 512;" xml:space="preserve">
<style type="text/css">
	.st0{fill:#FFFFFF;stroke:#000000;stroke-miterlimit:10;}
	.st1{fill:#003B57;}
	.st2{fill:#0F7FCB;}
	.st3{fill:#D9E1E6;}
	.st4{fill:#678A9A;}
	.st5{fill:#95D7F5;}
	.st6{fill:#88CFF0;}
	.st7{fill:#83CBEF;}
	.st8{fill:#8DD2F2;}
	.st9{fill:#91D5F3;}
	.st10{fill:#70BFE9;}
	.st11{fill:#7EC8EE;}
	.st12{fill:#6CBCE8;}
	.st13{fill:#7AC5EC;}
	.st14{fill:#67B9E6;}
	.st15{fill:#62B6E5;}
	.st16{fill:#76C3EB;}
	.st17{fill:#50AADF;}
	.st18{fill:#2A91D3;}
	.st19{fill:#4BA7DE;}
	.st20{fill:#3397D6;}
	.st21{fill:#5DB3E3;}
	.st22{fill:#46A3DC;}
	.st23{fill:#54ADE1;}
	.st24{fill:#41A0DB;}
	.st25{fill:#59B0E2;}
	.st26{fill:#208BD1;}
	.st27{fill:#2F94D5;}
	.st28{fill:#3D9DD9;}
	.st29{fill:#399BD8;}
	.st30{fill:#258ED2;}
	.st31{fill:#1785CE;}
	.st32{fill:#1C88CF;}
	.st33{fill:#1382CD;}
	.st34{fill:#248CD0;}
	.st35{fill:#3799D6;}
</style>
<path class="st0" d="M465,371H51c-19.9,0-36-16.1-36-36V172c0-19.9,16.1-36,36-36h414c19.9,0,36,16.1,36,36v163
	C501,354.9,484.9,371,465,371z"/>
<g>
	<path class="st1" d="M130.6,306c1.3-7.5,3.1-14.8,5-22.1c7.4-28.2,18.8-54.8,32.6-80.4c5.3-9.8,10.9-19.4,17.7-28.3
		c0.9-1.2,1.8-2.3,2.8-3.5c0.1-0.3,0.2-0.5,0.4-0.7c-0.1,0.2-0.4,0.3-0.7,0.4c-5.9,5.3-11,11.4-15.7,17.8
		c-13.8,18.7-24.1,39.1-32.3,60.8c-4.7,12.4-7.9,25.2-10.5,38.1c-2.4,12-4,24.1-4.2,36.3c-0.2,10.1,0.4,20.1,3.3,29.8
		c0.2,0.8-0.1,1.1-0.7,1.3c-0.8,0.3-0.7-0.5-0.8-0.8c-1.6-4.3-2.3-8.8-3-13.4c-0.4-2.6-0.6-5.3-0.9-8c-0.9-1.5-0.7-3.3-0.8-5
		c-0.1-3.4-0.6-6.8-0.3-10.1c0.7-9-1.1-17.7-3.1-26.4c-0.4-1.6-0.7-3.1-1.1-4.7c-0.5-1.1-0.5-2.4-1-3.5c-0.3-1.3-0.7-2.6-1.3-3.8
		c-0.5-1.2-1.3-2.4-1.3-3.8c0-1.3,0.3-2.6,0.5-3.9c0.3-1.5,0.6-3.1,1-4.6c0.1-0.4,0.2-0.9,0.4-1.3c0.1-0.4,0.2-0.9,0.6-1
		c0.5-0.1,0.8,0.4,1,0.8c0.4,0.8,1,1.6,1.4,2.4c1,1.7,1.8,3.5,2.8,5.2c0.8,1.4,1.4,2.9,1.8,4.4c0.1,0.5,0.3,1,0.5,1.5
		c-0.2-0.6-0.4-1.2-0.5-1.8c-1-3.1-1.8-6.3-2.9-9.4c-0.7-1.8-1.2-3.6-2-5.4c-0.7-1.3-1.2-2.5-0.6-4c0.5-1.4,1-2.8,1.3-4.2
		c0.4-1.1,0.7-2.2,1.1-3.2c0.3-0.8,0.7-0.9,1.2-0.2c0.5,0.6,0.8,1.3,1.1,2c1,1.8,2,3.5,2.9,5.4c0.7,1.3,1.4,2.6,1.7,4.1
		c0.2,0.5,0.3,1,0.5,1.5c-0.1-0.3-0.2-0.5-0.2-0.7c-0.1-0.4-0.2-0.7-0.3-1.1c-0.4-1.3-0.7-2.6-1.2-3.8c-0.6-1.9-0.9-3.8-1.7-5.6
		c-0.4-0.9-0.7-1.8-1-2.7c-0.2-1.3-1.2-2.3-1.3-3.7c0.2-1.3,0.6-2.6,0.7-4c0.3-1.4,0.8-2.8,1.1-4.3c0.5-1.4,0.8-2.9,1.2-4.4
		c0.4-1.4,1-2.9,1.4-4.3c0.5-1.4,1-2.9,1.5-4.4c0.4-1.2,0.9-2.4,1.3-3.6c0.6-1.3,1.1-2.7,1.6-4c0.6-1.4,1.2-2.9,1.8-4.3
		c0.7-1.5,1.3-3.1,2-4.6c0.6-1.4,1.3-2.6,1.8-4c0.7-1.3,1.4-2.7,2-4.1c0.8-1.4,1.4-2.9,2.3-4.3c0.7-1.2,1.3-2.5,2-3.6
		c0.9-1.5,1.7-3,2.6-4.5c0.8-1.3,1.6-2.5,2.3-3.8c1.1-1.5,2.1-3,3.1-4.6c1-1.4,2-2.8,3-4.2c0.9-1.3,1.9-2.5,2.9-3.8
		c1.7-2,3.3-4,5.1-5.9c1.1-1.1,2.2-2.1,3.2-3.2c0.4-0.4,0.8-0.7,1.3-0.9c2.5-2,5-4.1,7.8-5.7c2.7-1.6,5.6-2.8,8.8-3.3
		c5.1-0.8,9.5,0.8,13.4,4.2c5.4,4.8,8,10.9,8.7,18c0.9,9-1,17.7-3.7,26.2c-4,12.6-9.8,24.3-16.3,35.7c-2.4,4.2-4.9,8.2-7.4,12.3
		c-0.3,0.5-0.6,0.8-1.2,1c-9,3-17.3,7.2-25.5,11.8c-0.5,0.3-1,0.6-1.5,1c7.5-3.2,15.5-4.7,23.6-6.7c-3.6,5.4-7.2,10.6-10.9,15.6
		c-2.5,3.4-5.1,6.7-7.7,10.1c-0.5,0.7-1.2,1.2-1.9,1.6c-8.7,4.3-15.9,10.3-20.6,19c-0.6,1.1-1,2.2-1.5,3.3
		C130.6,306.3,130.5,306.2,130.6,306z"/>
	<path class="st2" d="M166.9,162c-1.4,1.5-2.9,3-4.4,4.3c-0.8,0.5-1.6,0.4-2.5,0.4c-19.7,0-39.4,0-59,0c-19.5,0-39.1,0-58.6,0
		c-1.4,0-2.9,0.1-4.3,0.3c-2.9,0.5-5.2,2.1-6.9,4.4c-1,1.3-1.5,2.8-1.8,4.4c-0.2,1.6-0.1,3.3-0.1,4.9c0,1.4,0,2.8,0,4.3
		c-0.1,1.4,0,2.7,0,4.1c-0.1,1.3,0,2.6,0,3.8c0,1.4,0,2.7,0,4.1c-0.1,1.7,0,3.4,0,5.1c-0.1,1.5,0,3.1,0,4.6c-0.1,1.4,0,2.9,0,4.3
		c-0.1,1.5,0.1,3,0,4.6c-0.1,1.4,0.1,2.7,0,4.1c-0.1,1.4,0.1,2.9,0,4.3c-0.1,1.3,0.1,2.6,0,3.8c-0.1,1.5,0.1,3,0,4.6
		c-0.1,1.4,0.1,2.9,0,4.3c-0.1,1.8,0.1,3.5,0,5.3c0,1.4,0.1,2.7,0,4.1c0,1.4,0.1,2.7,0,4.1c0,1.4,0.1,2.7,0,4.1c0,1.5,0.1,3,0,4.6
		c0,1.4,0,2.7,0,4.1s0,2.9,0,4.3c0,1.5,0.1,3,0,4.6c0,1.4,0,2.9,0,4.3c0,1.3,0,2.6,0,3.8c0,1.3,0,2.6,0,3.9c0,0.2,0,0,0,0.1
		c0.1,2.9,0.1,3,3,3c27.8,0,55.6,0,83.4,0c1,0,2-0.1,3-0.1c1.2,3.5,1.8,7.2,2.5,10.8c0.8,3.9,1.5,7.8,2,11.7
		c0.1,1.2-0.1,2.4-0.1,3.5c-0.2,6.3,0.1,12.5,0.5,18.8c0,0.5,0.3,1.1,0.2,1.6c-0.5-0.2-1.1-0.1-1.6-0.1c-27.1,0-54.2-0.1-81.3,0.1
		c-8.8,0.1-16.5-6.7-16.5-16.5c0.1-46.2,0.1-92.3,0-138.5c0-9.4,7.2-16.5,16.5-16.5c30.1,0.2,60.2,0.1,90.3,0.1
		c11.4,0,22.8,0,34.2,0C165.9,162,166.4,162,166.9,162z"/>
	<path class="st1" d="M318.2,355c-0.4-0.7-0.4-1.4-1.6-1c-4.4,1.3-8.7,1.2-12.9-0.8c-3.5-1.6-6.3-4.2-9-6.9c-4-4-7.2-8.6-11.2-12.8
		c0.4-0.1,0.7-0.2,1-0.3c7.7-1.7,14.4-5.3,20-10.9c13.5-13.5,14.6-32.9,7.3-46.4c-8.3-15.4-24.2-23.9-43.3-21.2
		c-21.6,3.1-36.3,22.5-33.9,44.1c1.7,15.6,13.9,29.9,29,34c2.6,0.7,4.7,1.9,6.6,3.8c1,1.1,2.1,2.1,3.1,3.2c2.8,3.1,5.5,6.4,8.6,9.2
		c10.4,9.4,22.4,11.5,35.6,7.2C317.8,356,318.7,356,318.2,355z M280.7,330.9c-12.7,2.4-23.4-2.7-29.6-14.1
		c-3.4-6.3-4.8-13.1-5.1-20.1c-0.3-7.5,0.5-14.9,3.5-21.9c3.6-8.2,9.3-14.3,18.2-16.7c14.2-3.7,27.2,2.9,32.9,16.6
		c2.7,6.4,3.5,13.1,3.6,20.8c0,7.2-1.2,15-5.4,22C294.8,324.6,288.9,329.4,280.7,330.9z"/>
	<path class="st1" d="M179.1,323c0-3.1,0-6.1,0-9.2c0-0.6-0.1-1.3,0.9-1.2c0.8,0.1,1.4-0.1,1.4,1.1c0.6,8.5,5.3,14.7,13,17
		c4.4,1.3,8.7,1.1,12.9-0.7c7.5-3.2,10.1-12.2,5.6-19.2c-2-3.2-5-5.5-8-7.7c-4.8-3.5-10.1-6.4-15-9.8c-4.2-3-7.8-6.5-9.3-11.6
		c-2.2-7.2-1.9-14.2,3-20.3c4.1-5.1,9.7-7,16-7.1c4-0.1,7.7,0.8,11.5,2c1.2,0.4,2.5,0.8,3.8,0.9c1,0.1,1.7-0.2,1.9-1.2
		c0.2-1.2,1.2-0.9,1.9-0.8c0.9,0,0.5,0.8,0.5,1.3c0,5.1,0,10.2,0,15.3c0,0.5,0.5,1.4-0.7,1.3c-0.8,0-1.5,0.2-1.7-1.1
		c-0.9-6.2-3.9-10.9-9.8-13.3c-4.2-1.7-8.5-1.8-12.8-0.4c-7,2.3-9.8,9.2-6.7,16.2c1.3,2.8,3.4,4.9,5.7,6.8c3.8,3,7.9,5.4,11.9,7.9
		c4.2,2.6,8.3,5.4,11.9,8.9c9,8.5,8.6,23.3-1.7,31.7c-5.6,4.6-12,5.7-19,4.3c-3.5-0.7-6.9-2-10.3-3c-2.5-0.8-3.4-0.5-4.5,1.8
		c-0.5,1.1-1.4,0.6-2.1,0.7c-0.8,0-0.5-0.7-0.5-1.1C179.1,329.1,179.1,326.1,179.1,323z"/>
	<path class="st1" d="M347.5,333.1c-7.9,0-15.8,0-23.7,0c-0.4,0-1.3,0.4-1.2-0.6c0.1-0.7-0.5-1.9,1-2c0.2,0,0.3-0.1,0.5-0.1
		c3.9-0.7,5.4-2.2,5.8-6.2c0.1-1.4,0.2-2.9,0.2-4.3c0-17.4,0-34.8,0-52.1c0-1.7-0.1-3.3-0.2-5c-0.2-3.6-1.9-5.3-5.5-5.9
		c-0.7-0.1-1.3-0.2-2-0.2c-1-0.1-1.7-1.3-1.2-2.2c0.2-0.4,0.5-0.2,0.8-0.2c8.1,0,16.3,0,24.4,0c0.8,0,0.9,0.4,0.8,0.9
		s0.6,1.4-0.6,1.6h-0.1c-4.8,1-6,2.3-6.4,7.3c-0.1,1-0.1,1.9-0.1,2.9c-0.1,17.9-0.1,35.8-0.2,53.7c0,0.8,0,1.5,0.1,2.3
		c0.4,3.8,2.6,6.2,6.4,6.7c5.9,0.7,11.8,0.7,17.6-0.5c3.9-0.8,6.3-3.2,7.3-7.1c0.3-1.1,1-1.5,2.1-1.2c0.5,0.1,0.4,0.5,0.4,0.8
		c-0.4,3.5-0.8,7.1-1.1,10.6c-0.1,1-0.7,0.9-1.3,0.9C363.4,333.1,355.4,333.1,347.5,333.1z"/>
	<path class="st1" d="M485.5,318.5c-0.1,0.2-0.3,0.3-0.4,0.5c-3.1,4.9-7.5,7.9-13.3,8.7c-5.1,0.7-9.5-0.6-12.6-5.1
		c-1.8-2.7-2.6-5.8-2.9-9c-0.1-0.6,0.1-0.8,0.7-0.9c2.5-0.4,5.1-1,7.5-1.7c6.8-1.8,12.3-5.6,16.9-10.8c3.4-3.9,2.1-9.9-2.7-11.6
		c-8.2-3-16.6-1.8-22.7,5.4c-6.7,8-8.5,17.1-5.8,27c1.8,6.5,5.8,10.9,12.5,12.5c3.9,0.9,7.8,0.4,11.7-0.4c3.6-0.7,6.4-2.6,8.4-5.6
		c1.2-1.7,2.2-3.5,3.1-5.4C487.3,320.1,487.3,320.1,485.5,318.5z M456.3,309.5c0-0.5,0-0.9,0-1.4c0.1-4.7,1.3-9,4.2-12.8
		c3-3.9,7.7-4.4,11.2-1.2c3,2.8,2.8,7.7-0.6,10.6c-2.9,2.6-6.5,3.8-10.1,4.8c-1.1,0.3-2.3,0.5-3.5,0.8
		C456.6,310.6,456.2,310.4,456.3,309.5z"/>
	<path class="st1" d="M417.8,309.1c0-5.2,0-10.4,0-15.6c0-0.9-0.2-1.3-1.2-1.3c-2,0.1-4,0-6,0c-0.5,0-1-0.1-0.8-0.7
		c0.1-0.5-0.6-1.4,0.6-1.6c6.9-1,10.5-5.4,12.4-11.7c0.4-1.1,1.1-1.5,2.2-1.2c0.6,0.2,0.4,0.7,0.4,1c0,3.1,0.1,6.3,0,9.4
		c0,1,0.3,1.2,1.2,1.2c3.3-0.1,6.5,0,9.8,0c0.8,0,1.2,0.1,1.2,1.1c0,2.6,0.1,2.6-2.5,2.6c-2.9,0-5.8,0-8.7,0c-0.8,0-1.1,0.2-1.1,1
		c0,10,0,19.9,0,29.9c0,0.4,0,0.8,0.1,1.1c0.6,3.7,2.6,5.1,6.3,4.2c3.9-1,6.8-3.5,9.6-6.2c0.6-0.6,0.9-0.5,1.5-0.1
		c1,0.8,1.1,1.2,0.1,2.2c-3.4,3.4-7,6.6-11.5,8.4c-1.8,0.7-3.7,1.2-5.7,1.2c-4.8,0.2-7.5-2.3-7.9-7
		C417.5,321.1,417.8,315.1,417.8,309.1z"/>
	<path class="st1" d="M398.2,306.4c0,5.5,0,10.9,0,16.4c0,1.4,0.1,2.9,0.4,4.3c0.4,1.6,1.4,2.6,3,2.9c1.4,0.3,2.8,0.3,4.2,0.3
		c1.1,0,0.8,0.8,0.9,1.4c0.1,0.8-0.2,0.9-0.9,0.9c-7.2,0-14.4,0-21.6,0c-0.5,0-1,0.1-0.9-0.7c0.2-0.6-0.5-1.6,0.8-1.6
		c1.4-0.1,2.7,0,4-0.4c1-0.2,1.6-0.8,1.9-1.8c0.4-1.4,0.4-2.9,0.4-4.3c0.1-8.5,0.1-17,0.1-25.6c0-0.6-0.1-1.2-0.2-1.8
		c-0.5-2.5-2-3.7-4.6-3.5c-1.4,0.1-2.7,0.3-4,0.5c-0.7,0.1-0.9,0-0.9-0.7c0-1.8-0.1-1.8,1.7-2.2c4-0.9,7.9-1.8,11.9-2.7
		c3.7-0.9,3.9-0.7,3.9,3C398.2,295.9,398.2,301.1,398.2,306.4L398.2,306.4z"/>
	<path class="st1" d="M386.7,272.2c0-1.8,1.3-3.2,3.1-3.4c3.4-0.2,6.4,3,5.6,6.1c-0.4,1.5-1.6,2.5-3.1,2.6
		C389.6,277.6,386.7,274.9,386.7,272.2z"/>
	<path class="st3" d="M188.4,171.4c0.4-0.4,0.8-0.9,1.2-1.3c0.1,0.8-0.5,1.2-0.9,1.6C188.6,171.6,188.5,171.5,188.4,171.4z"/>
	<path class="st4" d="M130.6,306c0.1,0.1,0.2,0.2,0.2,0.2c-0.1,0.3-0.2,0.6-0.3,1C130.3,306.7,130.4,306.3,130.6,306z"/>
	<path class="st5" d="M30.6,171.7c1.7-3,4.3-4.5,7.6-5c1.3-0.2,2.7-0.2,4.1-0.2c40,0,80.1,0,120.1,0c-1.7,1.9-3.3,3.9-5,5.8
		c-0.8,0.5-1.7,0.4-2.6,0.4c-25.2,0-50.5,0-75.7,0c-15.1,0-30.2,0-45.3,0c-0.7,0-1.4,0.1-2-0.1C31.3,172.4,30.7,172.4,30.6,171.7z"
		/>
	<path class="st6" d="M28.9,180.9c0-1.7-0.3-3.4,0.2-5.1c0.1,0.1,0.2,0.3,0.3,0.4c0.2,0.8,0.1,1.6,0.2,2.4c0,0.7,0.4,1.1,1.1,1.1
		c0.6,0,1.2,0,1.8,0c38.9,0,77.7,0,116.6,0c0.9,0,1.8-0.2,2.6,0.4c-1,1.6-1.9,3.2-3.1,4.6c-0.3,0.2-0.6,0.3-1,0.2
		c-6.3-0.2-12.6-0.1-18.9-0.1c-32.3,0-64.5,0-96.8,0c-2.8,0-2.8,0-2.8-2.7C29,181.7,29.1,181.3,28.9,180.9z"/>
	<path class="st7" d="M28.9,180.9c0.4,0.8,0.2,1.7,0.2,2.6c0,0.7,0.3,1,1,0.9c0.3,0,0.7,0,1,0c37.8,0,75.7,0,113.5,0
		c1.3,0,2.6-0.1,3.9,0.3c-0.6,1.4-1.5,2.6-2.3,3.8c-0.3,0.5-0.9,0.6-1.4,0.7c-0.5,0-1,0-1.5,0c-37.1,0-74.2,0-111.3,0
		c-2.9,0-2.9,0-2.9-2.8c0-0.4,0.1-0.8-0.1-1.1C28.9,183.7,28.9,182.3,28.9,180.9z"/>
	<path class="st8" d="M151.6,180.1c-3.2,0-6.4,0-9.5,0c-37.1,0-74.1,0-111.2,0c-1.8,0-1.8,0-1.8-1.8c0-0.8,0-1.5,0-2.3
		c0.4-0.4,0.8-0.4,1.3-0.4c0.4,0,0.8,0,1.3,0c40.1,0,80.2,0,120.2,0c0.9,0,1.8-0.2,2.6,0.4C153.5,177.4,152.6,178.7,151.6,180.1z"/>
	<path class="st9" d="M154.5,176c-41.8,0-83.6,0-125.4,0c0-0.1,0-0.2,0-0.3c0.1-1.5,0.7-2.9,1.5-4.1c0.7,0.6,1.6,0.5,2.4,0.5
		c37,0,74,0,111,0c4.5,0,8.9,0,13.4,0C156.4,173.5,155.5,174.7,154.5,176z"/>
	<path class="st10" d="M28.9,202.2c0-1.7,0-3.4,0-5.1c0.8,0.3,0.6,1,0.6,1.6c0.1,1.4,0.2,1.5,1.6,1.5c0.5,0,0.9,0,1.4,0
		c34.7,0,69.4,0,104.2,0c0.9,0,2-0.3,2.7,0.7c-0.5,1.4-1.3,2.8-2,4.1c-0.7,0.5-1.5,0.4-2.3,0.4c-20.7,0-41.4,0-62.2,0
		c-13.6,0-27.2,0-40.8,0c-0.1,0-0.3,0-0.4,0c-2.6,0-2.6,0-2.7-2.6C29,202.6,29,202.4,28.9,202.2z"/>
	<path class="st11" d="M28.9,185.2c0.4,0.8,0.2,1.7,0.2,2.6c0,0.7,0.3,1,1,0.9c0.3,0,0.5,0,0.8,0c37.8,0,75.7,0,113.5,0
		c0.6,0,1.3,0.1,1.9-0.2c-0.9,1.5-1.7,3-2.6,4.6c-0.3,0.2-0.6,0.2-1,0.2c-22.8-0.1-45.6,0-68.3-0.1c-14.2,0-28.3,0-42.5,0
		c-2.8,0-2.8,0-2.8-2.7c0-0.4,0.1-0.8-0.1-1.3C28.9,187.9,28.9,186.5,28.9,185.2z"/>
	<path class="st12" d="M28.9,202.2c0.3,0.2,0.2,0.5,0.2,0.8c0.1,2,0.1,2,2.1,2c34.7,0,69.5,0,104.2,0c0.6,0,1.3,0,1.9,0
		c-0.6,1.3-1.3,2.7-1.9,4c-0.3,0.5-0.8,0.6-1.3,0.6c-0.6,0-1.1,0-1.7,0c-33.5,0-67.1,0-100.6,0c-0.9,0-2,0.3-2.7-0.4
		c-0.6-0.7,0-1.7-0.3-2.6C28.9,205.3,28.9,203.7,28.9,202.2z"/>
	<path class="st13" d="M28.9,189.3c0.4,0.8,0.2,1.7,0.2,2.6c0,0.7,0.3,1,1,0.9c0.3,0,0.7,0,1,0c36.4,0,72.8,0,109.2,0
		c1.1,0,2.2-0.1,3.3,0.3c-0.7,1.2-1.3,2.4-2,3.6c-0.3,0.5-0.9,0.6-1.4,0.7c-0.6,0-1.2,0-1.8,0c-35.2,0-70.4,0-105.5,0
		c-3.7,0-3.7,0-3.8-3.7c0-0.2,0-0.3-0.1-0.5C28.9,191.8,28.9,190.5,28.9,189.3z"/>
	<path class="st14" d="M28.9,206.8c0.3,0.2,0.2,0.5,0.2,0.8c-0.1,1.9-0.1,1.7,1.7,1.7c34.3,0,68.6,0,102.9,0c0.6,0,1.2,0.1,1.7-0.2
		c-0.7,1.5-1.3,3.1-2,4.6c-0.6,0.5-1.3,0.4-1.9,0.4c-3.9,0-7.8,0-11.7,0c-29.1,0-58.1,0-87.2,0c-0.1,0-0.2,0-0.3,0
		c-1-0.1-2.1,0.3-3-0.2c-1-0.6-0.1-1.8-0.5-2.7C28.9,209.7,28.9,208.2,28.9,206.8z"/>
	<path class="st15" d="M28.9,211.1c0.3,0.2,0.2,0.5,0.2,0.8c0,1.9-0.1,1.7,1.8,1.7c34.2,0,68.3,0,102.5,0c-0.5,1.5-1.1,2.9-1.8,4.3
		c-0.6,0.5-1.4,0.4-2.1,0.4c-4.6,0-9.2,0-13.7,0c-27.8,0-55.6,0-83.3,0c-0.1,0-0.3,0-0.4,0c-0.9,0-1.9,0.2-2.8-0.2
		c-0.9-0.6-0.1-1.7-0.5-2.5C28.9,214.2,28.9,212.6,28.9,211.1z"/>
	<path class="st16" d="M28.9,193.1c0.5,0.7,0.2,1.6,0.2,2.4c-0.1,1,0.4,1.4,1.3,1.4c0.3,0,0.7,0,1,0c36.2,0,72.3,0,108.5,0
		c0.6,0,1.2,0.1,1.7-0.3c-0.7,1.5-1.4,2.9-2.3,4.3c-0.6-0.4-1.2-0.3-1.9-0.3c-35.5,0-71,0-106.5,0c-1.8,0-1.8,0-1.9-1.8
		c0-0.6,0.2-1.2-0.2-1.7C28.9,195.8,28.9,194.4,28.9,193.1z"/>
	<path class="st17" d="M28.9,232.5c0-1.5,0-3.1,0-4.6c0.1,0,0.3,0,0.3,0.1c0.3,1.6,1.5,1.5,2.7,1.5c31,0,61.9,0,92.9,0
		c0.9,0,1.8-0.2,2.6,0.4c-0.3,1.5-0.9,2.9-1.3,4.3c-0.6,0.5-1.4,0.4-2.1,0.4c-6.2,0-12.4,0-18.6,0c-24.3,0-48.6,0-72.9,0
		c-0.3,0-0.7,0-1,0C29.2,234.7,29.2,234.7,28.9,232.5z"/>
	<path class="st18" d="M28.9,267.3c0-1.4,0-2.9,0-4.3c0.4-0.2,0.9-0.2,1.4-0.2c29.2,0,58.4,0,87.6,0c0.6,0,1.1,0,1.6,0.1
		c1,1.7,1.5,3.5,2.1,5.3c-0.6,0.7-1.4,0.8-2.2,0.3c-0.6-1.1-1.3-2.1-2-3.3c-0.5,0.8-0.5,1.6-0.8,2.3c-0.3,0.5-0.7,0.6-1.2,0.6
		c-0.4,0-0.8,0-1.3,0c-27.4,0-54.8,0-82.2,0c-0.6,0-1.1,0-1.7-0.1C29.7,268.1,29.2,267.9,28.9,267.3z"/>
	<path class="st19" d="M28.9,232.5c0.6,1.8,0.6,1.8,2.7,1.8c31.5,0,63,0,94.5,0c-0.3,1.5-0.7,2.9-1.2,4.3c-0.8,0.5-1.6,0.4-2.5,0.4
		c-25.1,0-50.2,0-75.3,0c-5.2,0-10.3,0-15.5,0c-0.5,0-0.9,0-1.4,0c-0.8,0-1.4-0.3-1.3-1.3c0-0.3,0.1-0.6-0.1-0.9
		C28.9,235.4,28.9,233.9,28.9,232.5z"/>
	<path class="st20" d="M28.9,258.9c0-1.5,0-3.1,0-4.6c0.3-0.2,0.6-0.2,1-0.2c29.3,0.1,58.7,0,88,0c0.5,0,1,0,1.5,0.1
		c0.4,0.1,0.7,0.2,0.9,0.6c-0.3,1.5-0.8,2.9-1.3,4.3c-0.7,0.6-1.4,0.4-2.2,0.4c-8.6,0-17.1,0-25.7,0c-19.7,0-39.5,0-59.2,0
		C30.8,259.6,29.7,259.8,28.9,258.9z"/>
	<path class="st21" d="M28.9,215.7c0.1,0.1,0.2,0.2,0.2,0.3c0.3,2,0.3,2,2.3,2c33.5,0,66.9,0,100.4,0c-0.4,1.4-0.9,2.7-1.6,4.1
		c-0.6,0.5-1.4,0.4-2.1,0.4c-5,0-9.9,0-14.9,0c-26.8,0-53.7,0-80.5,0c-0.2,0-0.3,0-0.5,0c-0.9,0-1.9,0.2-2.8-0.2
		c-0.9-0.6-0.1-1.7-0.5-2.5C28.9,218.4,28.9,217.1,28.9,215.7z"/>
	<path class="st22" d="M28.9,236.8c0.6,1.8,0.6,1.8,2.7,1.8c30.5,0,61,0,91.5,0c0.6,0,1.2,0,1.8,0c-0.2,1.5-0.8,2.9-1.1,4.3
		c-0.6,0.5-1.4,0.4-2.1,0.4c-6.8,0-13.6,0-20.5,0c-23,0-46,0-69,0c-0.6,0-1.2,0-1.8,0c-0.8,0-1.4-0.3-1.6-1.2
		C28.9,240.4,28.9,238.6,28.9,236.8z"/>
	<path class="st23" d="M127.4,229.9c-28.3,0-56.7,0-85,0c-3.9,0-7.8,0-11.7,0c-1.1,0-1.8-0.2-1.6-1.5c0-0.2-0.1-0.4-0.2-0.6
		c0-1.3,0-2.5,0-3.8H29c0.7,1.6,2.1,1.3,3.5,1.3c31.7,0,63.4,0,95,0c0.5,0,0.9-0.1,1.4,0.2C128.5,227.1,128,228.5,127.4,229.9z"/>
	<path class="st24" d="M28.9,242.1c0.4,0.8,1.2,0.8,2,0.8c31,0,62,0,92.9,0c-0.1,1.4-0.5,2.7-0.8,4.1c-0.6,0.6-1.4,0.4-2.2,0.4
		c-8.4,0-16.9,0-25.3,0c-21.1,0-42.2,0-63.2,0c-0.6,0-1.2,0-1.8,0c-0.8,0-1.4-0.3-1.6-1.2C28.9,244.9,28.9,243.5,28.9,242.1z"/>
	<path class="st25" d="M128.9,225.6c-0.5,0.3-1,0.3-1.5,0.3c-32.2,0-64.5,0-96.7,0c-1.6,0-1.4-1-1.8-1.8c0-1.4,0-2.9,0-4.3
		c0.1,0.1,0.2,0.2,0.2,0.3c0.3,2,0.3,2,2.3,2c32.9,0,65.9,0,98.8,0C129.8,223.3,129.4,224.5,128.9,225.6z"/>
	<path class="st26" d="M28.9,276.2c0-1.4,0-2.9,0-4.3c0.7-0.6,1.4-0.4,2.2-0.4c9.9,0,19.8,0,29.6,0c17.3,0,34.7,0,52,0
		c1,0,2.1-0.2,2.9,0.7c-0.2,1.4-0.3,2.7-0.5,4.1c-0.6,0.6-1.4,0.4-2.2,0.4c-9.9,0-19.7,0-29.6,0c-17.3,0-34.7,0-52,0
		C30.5,276.6,29.6,276.8,28.9,276.2z"/>
	<path class="st27" d="M28.9,258.9c1.2,0.3,2.4,0.3,3.7,0.3c28.8,0,57.6,0,86.4,0c-0.7,1.4,0,2.6,0.5,3.8c-0.4,0.4-0.9,0.3-1.3,0.3
		c-29.3,0-58.5,0-87.8,0c-0.5,0-1,0-1.5-0.3C28.9,261.6,28.9,260.3,28.9,258.9z"/>
	<path class="st28" d="M28.9,246.2c0.4,0.8,1.2,0.8,2,0.8c30.7,0,61.4,0,92.1,0c0.4,1.2,1.2,2.2,1.4,3.5c-0.3,0.7-0.9,0.7-1.5,0.7
		c-30.1,0.1-60.2,0-90.3,0c-0.7,0-1.4,0-2,0c-0.7-0.1-1.3-0.2-1.6-0.9C28.9,248.9,28.9,247.6,28.9,246.2z"/>
	<path class="st29" d="M28.9,250.3c0.7,0.4,1.4,0.5,2.2,0.5c30.5,0,61,0,91.6,0c0.6,0,1.2,0.1,1.7-0.3c0.3,0.8,0.7,1.7,1,2.5
		c0.2,0.8-0.3,0.8-0.8,0.9c-0.5,0.1-0.9,0-1.3-0.3c-0.5-0.8-0.9-1.6-1.5-2.6c-0.5,1.4-1,2.6-1.4,3.8c-0.6-0.4-1.2-0.3-1.9-0.3
		c-29.1,0-58.3,0-87.4,0c-0.7,0-1.4,0-2.1-0.3C28.9,253,28.9,251.6,28.9,250.3z"/>
	<path class="st30" d="M115.6,272.1c-1.1-0.3-2.3-0.3-3.4-0.3c-27.8,0-55.6,0-83.3,0c0-1.5,0-3.1,0-4.6c0.8,0.4,1.7,0.5,2.6,0.5
		c27.8,0,55.6,0,83.4,0c0.6,0,1.2,0.1,1.7-0.2C116.3,269.1,115.9,270.6,115.6,272.1z"/>
	<path class="st31" d="M28.9,283.8c0-1.3,0-2.5,0-3.8c0.7-0.6,1.4-0.4,2.2-0.4c9.2,0,18.5,0,27.7,0c18.6,0,37.2,0,55.7,0
		c0.6,0,1.3,0,1.9,0.2c0.7,1.2,1.1,2.5,1.3,3.8c-0.4,0.5-0.9,0.6-1.5,0.6c-0.6,0.1-1.2,0-1.8,0c-27.7,0-55.5,0-83.2,0
		C30.5,284.3,29.6,284.4,28.9,283.8z"/>
	<path class="st32" d="M116.4,279.8c-0.4,0.4-1,0.3-1.4,0.3c-28.7,0-57.4,0-86.1,0c0-1.3,0-2.5,0-3.8c28.8,0,57.5,0,86.3,0
		C115.2,277.5,116.1,278.6,116.4,279.8z"/>
	<path class="st33" d="M28.9,283.8c28.3,0,56.6,0,84.8,0c1.4,0,2.7,0.1,4-0.3c0.6,1,0.6,2.2,1,3.3c-0.3,0.6-0.8,0.5-1.3,0.5
		c-29,0-58,0-87,0c-1.1,0-1.7-0.3-1.6-1.5C28.9,285.2,28.9,284.5,28.9,283.8z"/>
	<path class="st34" d="M119.4,268.6c0.7,0,1.5-0.1,2.2-0.3c1.2,3.1,2.1,6.4,2.8,9.7c0.1,0.3,0,0.3-0.2,0.2c-0.9-3-2.7-5.6-4.1-8.4
		C119.8,269.4,119.6,269,119.4,268.6z"/>
	<path class="st35" d="M123.2,253.6c0.7-0.3,1.6,0.5,2.1-0.6c0.9,1.8,1.2,3.7,1.8,5.6c-0.3,0.3-0.6,0.4-1,0.2
		C125.2,257.1,124.2,255.4,123.2,253.6z"/>
</g>
</svg>
