<svg id="Calque_1" data-name="Calque 1" xmlns="http://www.w3.org/2000/svg" viewBox="0 0 2443.6 2467.51"><defs><style>.cls-1{fill:#3e748a;}.cls-2{fill:#4b88a9;}.cls-3{fill:#cd596b;}.cls-4{fill:#373737;}.cls-5{fill:#ed8f20;}.cls-6{fill:#ef771d;}.cls-7{fill:#9b6026;}.cls-8{fill:#659c35;}.cls-9{fill:#88c057;}</style></defs><path class="cls-1" d="M2327.61,1068.57v804.94L1924.76,2663a1949.09,1949.09,0,0,1-353,30.61C1154.22,2693.56,816,2575.28,816,2429V1068.57Z" transform="translate(-778.2 -766.25)"/><ellipse class="cls-2" cx="793.6" cy="302.32" rx="755.81" ry="264.53"/><path class="cls-2" d="M1917.58,2211a1984.75,1984.75,0,0,1-345.78,29.1c-417.58,0-755.81-118.28-755.81-264.53V1522.06c0,146.1,338.38,264.53,755.81,264.53s755.81-118.44,755.81-264.53V1900Z" transform="translate(-778.2 -766.25)"/><circle class="cls-3" cx="1662.78" cy="1662.78" r="566.86"/><path class="cls-4" d="M2900.36,2094.74a37.79,37.79,0,0,0-11.76,52.13s0,0,0,0c156,247.25,82,574.14-165.26,730.12s-574.14,82-730.12-165.26-82-574.14,165.26-730.12a529.33,529.33,0,0,1,599.93,24.15,37.79,37.79,0,0,0,45.35-60.47,594.84,594.84,0,0,0-438.37-115.68V1068.57c0-196.51-408.86-302.32-793.6-302.32S778.2,872.06,778.2,1068.57V2429c0,196.51,408.86,302.32,793.6,302.32a2031.14,2031.14,0,0,0,331.65-26.72c152.37,297,516.64,414.22,813.63,261.86s414.22-516.64,261.86-813.63q-12.18-23.74-26.42-46.34a37.79,37.79,0,0,0-52.12-11.81l0,0ZM1571.8,841.83c423.25,0,718,119.49,718,226.74s-294.77,226.74-718,226.74-718-119.49-718-226.74S1148.55,841.83,1571.8,841.83Zm-718,361.32c135.71,109.71,433.38,167.75,718,167.75s582.31-58.05,718-167.75v318.91c0,107.25-294.77,226.74-718,226.74s-718-119.49-718-226.74Zm0,453.48c135.71,109.71,433.38,167.75,718,167.75s582.31-58.05,718-167.75V1844.3a606.17,606.17,0,0,0-397.56,332.56,1981.39,1981.39,0,0,1-320.46,25.43c-423.25,0-718-119.49-718-226.74Zm718,999.14c-423.25,0-718-119.49-718-226.74V2110.12c135.71,109.71,433.38,167.75,718,167.75a2070.44,2070.44,0,0,0,289.59-20A595.1,595.1,0,0,0,1872.5,2633a1974.58,1974.58,0,0,1-300.7,22.74Z" transform="translate(-778.2 -766.25)"/><path class="cls-4" d="M951.17,1488.31q18.9,8.85,39.83,17.12a37.81,37.81,0,1,0,27.89-70.29q-18.9-7.56-35.75-15.38a37.8,37.8,0,1,0-32,68.51Z" transform="translate(-778.2 -766.25)"/><path class="cls-4" d="M1147.64,1553.12q18.9,4.38,38.77,8.35a36.94,36.94,0,0,0,7.56.76,37.79,37.79,0,0,0,7.56-74.82c-12.51-2.53-24.75-5.18-36.81-7.94a37.79,37.79,0,1,0-17.91,73.43l1,.22Z" transform="translate(-778.2 -766.25)"/><path class="cls-4" d="M2694.44,2175.57a37.8,37.8,0,0,0-53.44,0l-200,200-200-200a37.79,37.79,0,0,0-53.44,53.44l200,200-200,200a37.79,37.79,0,0,0,52.51,54.37q.46-.45.93-.93l200-200,200,200a37.79,37.79,0,0,0,53.44-53.44l-200-200,200-200A37.8,37.8,0,0,0,2694.44,2175.57Z" transform="translate(-778.2 -766.25)"/><path class="cls-5" d="M2775.83,2027.2l-158.94-13.09,58.84-148.23a382.81,382.81,0,0,1,35.57-68,746.92,746.92,0,0,0-301.55-63.31c-414,0-749.59,335.6-749.59,749.59s335.6,749.59,749.59,749.59,749.59-335.6,749.59-749.59c0-189.24-70.27-362-186-493.88A382.26,382.26,0,0,1,2775.83,2027.2Z" transform="translate(-778.2 -766.25)"/><circle class="cls-6" cx="2061.69" cy="1435.76" r="62.47"/><circle class="cls-6" cx="2227.84" cy="1784.16" r="62.47"/><circle class="cls-6" cx="2217.85" cy="1591.92" r="62.47"/><circle class="cls-6" cx="2029.08" cy="1717.88" r="62.47"/><circle class="cls-6" cx="2061.69" cy="1935.48" r="62.47"/><circle class="cls-6" cx="1499.5" cy="1185.9" r="62.47"/><circle class="cls-6" cx="1280.87" cy="1279.59" r="62.47"/><path class="cls-5" d="M2503.45,1984.41s132.74,21.86,168.66,112.44" transform="translate(-778.2 -766.25)"/><path class="cls-7" d="M2672.1,2128.11a31.31,31.31,0,0,1-29-19.74c-28.89-72.8-143.64-92.95-144.76-93.14a31.23,31.23,0,0,1,10.18-61.62c6.15,1,150.67,26,192.64,131.74a31.25,31.25,0,0,1-17.52,40.54A30.84,30.84,0,0,1,2672.1,2128.11Z" transform="translate(-778.2 -766.25)"/><path class="cls-5" d="M2522.19,2078.11a305.79,305.79,0,0,1,118.28-80.17" transform="translate(-778.2 -766.25)"/><path class="cls-7" d="M2522.16,2109.34a31.21,31.21,0,0,1-23.08-52.25,337.7,337.7,0,0,1,130.43-88.42,31.23,31.23,0,1,1,22,58.47,274.65,274.65,0,0,0-106.19,72A31.16,31.16,0,0,1,2522.16,2109.34Z" transform="translate(-778.2 -766.25)"/><path class="cls-8" d="M3221.8,1638.69l-158.94-13.09a382.73,382.73,0,0,0-387.13,240.27l-58.84,148.23,158.94,13.09A382.76,382.76,0,0,0,3163,1786.92Z" transform="translate(-778.2 -766.25)"/><path class="cls-9" d="M2634.41,1970l-17.52,44.13,22.43,1.84c195.45-190.86,407.87-253.52,431.11-255l1.09-17.46,12.9,12.9,4.93-18.52-13.87-13.27C3056.8,1720.52,2838.64,1780.77,2634.41,1970Z" transform="translate(-778.2 -766.25)"/></svg>